<svg xmlns="http://www.w3.org/2000/svg"  style="display: none;">
  <defs>

<!--    <symbol id="home" viewBox="0 0 24 24">-->
<!--      <path d="M240-200h120v-240h240v240h120v-360L480-740 240-560v360Zm-80 80v-480l320-240 320 240v480H520v-240h-80v240H160Zm320-350Z"/>-->
<!--    </symbol>-->

    <symbol id="agent" viewBox="0 0 24 24">
      <path d="M280-80v-200H80v-400h200v-200h400v200h200v400H680v200H280ZM160-520h200q10 0 19 5t14 13l35 52 54-162q4-12 14.5-20t23.5-8q10 0 19 5t14 13l68 102h179v-80H600v-200H360v200H160v80Zm200 360h240v-200h200v-80H600q-10 0-19-5t-15-13l-34-52-54 162q-4 12-15 20t-24 8q-10 0-19-5t-14-13l-68-102H160v80h200v200Zm120-320Z"/>
    </symbol>

    <symbol id="health_metrics" viewBox="0 0 24 24">
      <path d="M440-120v-80h320v-284q0-117-81.5-198.5T480-764q-117 0-198.5 81.5T200-484v244h-40q-33 0-56.5-23.5T80-320v-80q0-21 10.5-39.5T120-469l3-53q8-68 39.5-126t79-101q47.5-43 109-67T480-840q68 0 129 24t109 66.5Q766-707 797-649t40 126l3 52q19 9 29.5 27t10.5 38v92q0 20-10.5 38T840-249v49q0 33-23.5 56.5T760-120H440Zm-80-280q-17 0-28.5-11.5T320-440q0-17 11.5-28.5T360-480q17 0 28.5 11.5T400-440q0 17-11.5 28.5T360-400Zm240 0q-17 0-28.5-11.5T560-440q0-17 11.5-28.5T600-480q17 0 28.5 11.5T640-440q0 17-11.5 28.5T600-400Zm-359-62q-7-106 64-182t177-76q89 0 156.5 56.5T720-519q-91-1-167.5-49T435-698q-16 80-67.5 142.5T241-462Z"/>
    </symbol>

    <symbol id="analytics" viewBox="0 0 24 24">
      <path d="M280-280h80v-200h-80v200Zm320 0h80v-400h-80v400Zm-160 0h80v-120h-80v120Zm0-200h80v-80h-80v80ZM200-120q-33 0-56.5-23.5T120-200v-560q0-33 23.5-56.5T200-840h560q33 0 56.5 23.5T840-760v560q0 33-23.5 56.5T760-120H200Zm0-80h560v-560H200v560Zm0-560v560-560Z"/>
    </symbol>

    <symbol id="ecg" viewBox="0 0 24 24">
      <path d="M480-480ZM80-600v-120q0-33 23.5-56.5T160-800h640q33 0 56.5 23.5T880-720v240h-80v-240H160v120H80Zm80 440q-33 0-56.5-23.5T80-240v-120h80v120h280v80H160ZM720-60l-61-52q-88-75-113.5-108.5T520-290q0-45 32-77.5t78-32.5q26 0 49.5 12t40.5 35q16-23 39.5-35t50.5-12q45 0 77.5 32.5T920-290q0 36-26 69.5T780-112l-60 52Zm0-106 28-23q56-48 74-67.5t18-33.5q0-12-9-21t-21-9q-8 0-14.5 3.5T780-305l-60 57-61-57q-9-8-15.5-11.5T630-320q-13 0-21.5 9t-8.5 21q0 14 17.5 33.5T691-189l29 23ZM280-280q-12 0-21.5-5.5T244-302l-69-138H80v-80h120q11 0 20.5 6t14.5 16l45 89 124-249q5-10 15-15t21-5q11 0 21 5t15 15l68 138h136v80H520q-12 0-21.5-5.5T484-462l-44-88-125 248q-5 11-14.5 16.5T280-280Zm440 37Z"/>
    </symbol>


    <symbol id="home" viewBox="0 0 24 24">
      <path d="M10 20v-6h4v6h5v-8h3L12 3 2 12h3v8z"/>
    </symbol>
    <symbol id="settings" viewBox="0 0 24 24">
      <path d="M19.14 12.94a7 7 0 0 0 0-1.88l2.03-1.57a.5.5 0 0 0-.08-.85l-2.14-1.2a7.07 7.07 0 0 0-1.68-2.4L15.3 3.3a.5.5 0 0 0-.86.08l-1.2 2.14a7.07 7.07 0 0 0-2.4 1.68L9.5 5.36a.5.5 0 0 0-.85.08L7.08 8.5a7 7 0 0 0-1.88 0L3.63 6.47a.5.5 0 0 0-.85.08l-1.2 2.14a7.07 7.07 0 0 0 1.68 2.4L3.3 15.3a.5.5 0 0 0 .08.86l2.14 1.2a7.07 7.07 0 0 0 2.4 1.68l1.15 2.14a.5.5 0 0 0 .85-.08l1.2-2.14a7.07 7.07 0 0 0 2.4-1.68l1.15 1.2a.5.5 0 0 0 .86-.08l1.2-2.14a7.07 7.07 0 0 0 1.68-2.4l2.14 1.15a.5.5 0 0 0 .85-.08l1.2-2.14a7.07 7.07 0 0 0-1.68-2.4zM12 15a3 3 0 1 1 0-6 3 3 0 0 1 0 6z"/>
    </symbol>
    <symbol id="user" viewBox="0 0 24 24">
      <path d="M12 12c2.21 0 4-1.79 4-4s-1.79-4-4-4-4 1.79-4 4 1.79 4 4 4zm0 2c-2.67 0-8 1.34-8 4v2h16v-2c0-2.66-5.33-4-8-4z"/>
    </symbol>
    <symbol id="sh" viewBox="0 0 24 24">
      <path d="M420-340h120v-100h100v-120H540v-100H420v100H320v120h100v100Zm60 260q-139-35-229.5-159.5T160-516v-244l320-120 320 120v244q0 152-90.5 276.5T480-80Zm0-84q104-33 172-132t68-220v-189l-240-90-240 90v189q0 121 68 220t172 132Zm0-316Z"/>
    </symbol>
  </defs>

</svg>
